<mxfile host="app.diagrams.net" modified="2024-03-06T16:29:49.068Z" agent="Mozilla/5.0 (X11; Ubuntu; Linux x86_64; rv:123.0) Gecko/20100101 Firefox/123.0" version="24.0.2" etag="cSai8-oIyWlUOiHlBJZu" type="github">
  <diagram name="Page-1" id="CYRI2sEDMnF4biKxIqbw">
    <mxGraphModel>
      <root>
        <mxCell id="0" />
        <mxCell id="1" parent="0" />
      </root>
    </mxGraphModel>
  </diagram>
</mxfile>
